<svg xmlns="http://www.w3.org/2000/svg" viewBox="0 0 7936 417" width="7936px" height="417px">
<svg
    viewBox="0 0 256 417"
    width="256px"
    height="417px"
    x="0px"
    y="0px">
    <path
        d="M 127.961 0 L 125.166 9.5 L 125.166 285.168 L 127.961 287.958 L 255.923 212.32 Z"
        fill="#343434"
        stroke-width="1"/>
    <path
        d="M 127.962 0 L 0 212.32 L 127.962 287.959 L 127.962 154.158 Z"
        fill="#8c8c8c"
        stroke-width="1"/>
    <path
        d="M 127.961 312.187 L 126.386 314.107 L 126.386 412.306 L 127.961 416.907 L 255.999 236.587 Z"
        fill="#3c3c3b"
        stroke-width="1"/>
    <path
        d="M 127.962 416.905 L 127.962 312.185 L 0 236.585 Z"
        fill="#8c8c8c"
        stroke-width="1"/>
    <path
        d="M 127.961 287.958 L 255.921 212.321 L 127.961 154.159 Z"
        fill="#141414"
        stroke-width="1"/>
    <path
        d="M 0.001 212.321 L 127.961 287.958 L 127.961 154.159 Z"
        fill="#393939"
        stroke-width="1"/>
</svg>

<svg
    viewBox="0 0 256 417"
    width="256px"
    height="417px"
    x="256px"
    y="0px">
    <path
        d="M 127.961 0 L 125.166 9.5 L 125.166 285.168 L 127.961 287.958 L 255.923 212.32 Z"
        fill="#343434"
        stroke-width="1"/>
    <path
        d="M 127.962 0 L 0 212.32 L 127.962 287.959 L 127.962 154.158 Z"
        fill="#898989"
        stroke-width="1"/>
    <path
        d="M 127.961 312.187 L 126.386 314.107 L 126.386 412.306 L 127.961 416.907 L 255.999 236.587 Z"
        fill="#3c3c3b"
        stroke-width="1"/>
    <path
        d="M 127.962 416.905 L 127.962 312.185 L 0 236.585 Z"
        fill="#898989"
        stroke-width="1"/>
    <path
        d="M 127.961 287.958 L 255.921 212.321 L 127.961 154.159 Z"
        fill="#141414"
        stroke-width="1"/>
    <path
        d="M 0.001 212.321 L 127.961 287.958 L 127.961 154.159 Z"
        fill="#393939"
        stroke-width="1"/>
</svg>

<svg
    viewBox="0 0 256 417"
    width="256px"
    height="417px"
    x="512px"
    y="0px">
    <path
        d="M 127.961 0 L 125.166 9.5 L 125.166 285.168 L 127.961 287.958 L 255.923 212.32 Z"
        fill="#343434"
        stroke-width="1"/>
    <path
        d="M 127.962 0 L 0 212.32 L 127.962 287.959 L 127.962 154.158 Z"
        fill="#7e7e7e"
        stroke-width="1"/>
    <path
        d="M 127.961 312.187 L 126.386 314.107 L 126.386 412.306 L 127.961 416.907 L 255.999 236.587 Z"
        fill="#3c3c3b"
        stroke-width="1"/>
    <path
        d="M 127.962 416.905 L 127.962 312.185 L 0 236.585 Z"
        fill="#7e7e7e"
        stroke-width="1"/>
    <path
        d="M 127.961 287.958 L 255.921 212.321 L 127.961 154.159 Z"
        fill="#141414"
        stroke-width="1"/>
    <path
        d="M 0.001 212.321 L 127.961 287.958 L 127.961 154.159 Z"
        fill="#393939"
        stroke-width="1"/>
</svg>

<svg
    viewBox="0 0 256 417"
    width="256px"
    height="417px"
    x="768px"
    y="0px">
    <path
        d="M 127.961 0 L 125.166 9.5 L 125.166 285.168 L 127.961 287.958 L 255.923 212.32 Z"
        fill="#343434"
        stroke-width="1"/>
    <path
        d="M 127.962 0 L 0 212.32 L 127.962 287.959 L 127.962 154.158 Z"
        fill="#676767"
        stroke-width="1"/>
    <path
        d="M 127.961 312.187 L 126.386 314.107 L 126.386 412.306 L 127.961 416.907 L 255.999 236.587 Z"
        fill="#3c3c3b"
        stroke-width="1"/>
    <path
        d="M 127.962 416.905 L 127.962 312.185 L 0 236.585 Z"
        fill="#676767"
        stroke-width="1"/>
    <path
        d="M 127.961 287.958 L 255.921 212.321 L 127.961 154.159 Z"
        fill="#141414"
        stroke-width="1"/>
    <path
        d="M 0.001 212.321 L 127.961 287.958 L 127.961 154.159 Z"
        fill="#393939"
        stroke-width="1"/>
</svg>

<svg
    viewBox="0 0 256 417"
    width="256px"
    height="417px"
    x="1024px"
    y="0px">
    <path
        d="M 127.961 0 L 125.166 9.5 L 125.166 285.168 L 127.961 287.958 L 255.923 212.32 Z"
        fill="#343434"
        stroke-width="1"/>
    <path
        d="M 127.962 0 L 0 212.32 L 127.962 287.959 L 127.962 154.158 Z"
        fill="#545454"
        stroke-width="1"/>
    <path
        d="M 127.961 312.187 L 126.386 314.107 L 126.386 412.306 L 127.961 416.907 L 255.999 236.587 Z"
        fill="#3c3c3b"
        stroke-width="1"/>
    <path
        d="M 127.962 416.905 L 127.962 312.185 L 0 236.585 Z"
        fill="#545454"
        stroke-width="1"/>
    <path
        d="M 127.961 287.958 L 255.921 212.321 L 127.961 154.159 Z"
        fill="#141414"
        stroke-width="1"/>
    <path
        d="M 0.001 212.321 L 127.961 287.958 L 127.961 154.159 Z"
        fill="#393939"
        stroke-width="1"/>
</svg>

<svg
    viewBox="0 0 256 417"
    width="256px"
    height="417px"
    x="1280px"
    y="0px">
    <path
        d="M 127.961 0 L 125.166 9.5 L 125.166 285.168 L 127.961 287.958 L 255.923 212.32 Z"
        fill="#343434"
        stroke-width="1"/>
    <path
        d="M 127.962 0 L 0 212.32 L 127.962 287.959 L 127.962 154.158 Z"
        fill="#494949"
        stroke-width="1"/>
    <path
        d="M 127.961 312.187 L 126.386 314.107 L 126.386 412.306 L 127.961 416.907 L 255.999 236.587 Z"
        fill="#3c3c3b"
        stroke-width="1"/>
    <path
        d="M 127.962 416.905 L 127.962 312.185 L 0 236.585 Z"
        fill="#494949"
        stroke-width="1"/>
    <path
        d="M 127.961 287.958 L 255.921 212.321 L 127.961 154.159 Z"
        fill="#141414"
        stroke-width="1"/>
    <path
        d="M 0.001 212.321 L 127.961 287.958 L 127.961 154.159 Z"
        fill="#393939"
        stroke-width="1"/>
</svg>

<svg
    viewBox="0 0 256 417"
    width="256px"
    height="417px"
    x="1536px"
    y="0px">
    <path
        d="M 127.961 0 L 125.166 9.5 L 125.166 285.168 L 127.961 287.958 L 255.923 212.32 Z"
        fill="#343434"
        stroke-width="1"/>
    <path
        d="M 127.962 0 L 0 212.32 L 127.962 287.959 L 127.962 154.158 Z"
        fill="#424242"
        stroke-width="1"/>
    <path
        d="M 127.961 312.187 L 126.386 314.107 L 126.386 412.306 L 127.961 416.907 L 255.999 236.587 Z"
        fill="#3c3c3b"
        stroke-width="1"/>
    <path
        d="M 127.962 416.905 L 127.962 312.185 L 0 236.585 Z"
        fill="#424242"
        stroke-width="1"/>
    <path
        d="M 127.961 287.958 L 255.921 212.321 L 127.961 154.159 Z"
        fill="#141414"
        stroke-width="1"/>
    <path
        d="M 0.001 212.321 L 127.961 287.958 L 127.961 154.159 Z"
        fill="#393939"
        stroke-width="1"/>
</svg>

<svg
    viewBox="0 0 256 417"
    width="256px"
    height="417px"
    x="1792px"
    y="0px">
    <path
        d="M 127.961 0 L 125.166 9.5 L 125.166 285.168 L 127.961 287.958 L 255.923 212.32 Z"
        fill="#343434"
        stroke-width="1"/>
    <path
        d="M 127.962 0 L 0 212.32 L 127.962 287.959 L 127.962 154.158 Z"
        fill="#3e3e3e"
        stroke-width="1"/>
    <path
        d="M 127.961 312.187 L 126.386 314.107 L 126.386 412.306 L 127.961 416.907 L 255.999 236.587 Z"
        fill="#3c3c3b"
        stroke-width="1"/>
    <path
        d="M 127.962 416.905 L 127.962 312.185 L 0 236.585 Z"
        fill="#3e3e3e"
        stroke-width="1"/>
    <path
        d="M 127.961 287.958 L 255.921 212.321 L 127.961 154.159 Z"
        fill="#141414"
        stroke-width="1"/>
    <path
        d="M 0.001 212.321 L 127.961 287.958 L 127.961 154.159 Z"
        fill="#393939"
        stroke-width="1"/>
</svg>

<svg
    viewBox="0 0 256 417"
    width="256px"
    height="417px"
    x="2048px"
    y="0px">
    <path
        d="M 127.961 0 L 125.166 9.5 L 125.166 285.168 L 127.961 287.958 L 255.923 212.32 Z"
        fill="#343434"
        stroke-width="1"/>
    <path
        d="M 127.962 0 L 0 212.32 L 127.962 287.959 L 127.962 154.158 Z"
        fill="#3d3d3d"
        stroke-width="1"/>
    <path
        d="M 127.961 312.187 L 126.386 314.107 L 126.386 412.306 L 127.961 416.907 L 255.999 236.587 Z"
        fill="#3c3c3b"
        stroke-width="1"/>
    <path
        d="M 127.962 416.905 L 127.962 312.185 L 0 236.585 Z"
        fill="#3d3d3d"
        stroke-width="1"/>
    <path
        d="M 127.961 287.958 L 255.921 212.321 L 127.961 154.159 Z"
        fill="#141414"
        stroke-width="1"/>
    <path
        d="M 0.001 212.321 L 127.961 287.958 L 127.961 154.159 Z"
        fill="#393939"
        stroke-width="1"/>
</svg>

<svg
    viewBox="0 0 256 417"
    width="256px"
    height="417px"
    x="2304px"
    y="0px">
    <path
        d="M 127.961 0 L 125.166 9.5 L 125.166 285.168 L 127.961 287.958 L 255.923 212.32 Z"
        fill="#343434"
        stroke-width="1"/>
    <path
        d="M 127.962 0 L 0 212.32 L 127.962 287.959 L 127.962 154.158 Z"
        fill="#3c3c3c"
        stroke-width="1"/>
    <path
        d="M 127.961 312.187 L 126.386 314.107 L 126.386 412.306 L 127.961 416.907 L 255.999 236.587 Z"
        fill="#3c3c3b"
        stroke-width="1"/>
    <path
        d="M 127.962 416.905 L 127.962 312.185 L 0 236.585 Z"
        fill="#3c3c3c"
        stroke-width="1"/>
    <path
        d="M 127.961 287.958 L 255.921 212.321 L 127.961 154.159 Z"
        fill="#141414"
        stroke-width="1"/>
    <path
        d="M 0.001 212.321 L 127.961 287.958 L 127.961 154.159 Z"
        fill="#393939"
        stroke-width="1"/>
</svg>

<svg
    viewBox="0 0 256 417"
    width="256px"
    height="417px"
    x="2560px"
    y="0px">
    <path
        d="M 127.961 0 L 125.166 9.5 L 125.166 285.168 L 127.961 287.958 L 255.923 212.32 Z"
        fill="#333333"
        stroke-width="1"/>
    <path
        d="M 127.962 0 L 0 212.32 L 127.962 287.959 L 127.962 154.158 Z"
        fill="#3f3f3f"
        stroke-width="1"/>
    <path
        d="M 127.961 312.187 L 126.386 314.107 L 126.386 412.306 L 127.961 416.907 L 255.999 236.587 Z"
        fill="#3b3b3a"
        stroke-width="1"/>
    <path
        d="M 127.962 416.905 L 127.962 312.185 L 0 236.585 Z"
        fill="#3f3f3f"
        stroke-width="1"/>
    <path
        d="M 127.961 287.958 L 255.921 212.321 L 127.961 154.159 Z"
        fill="#141414"
        stroke-width="1"/>
    <path
        d="M 0.001 212.321 L 127.961 287.958 L 127.961 154.159 Z"
        fill="#393939"
        stroke-width="1"/>
</svg>

<svg
    viewBox="0 0 256 417"
    width="256px"
    height="417px"
    x="2816px"
    y="0px">
    <path
        d="M 127.961 0 L 125.166 9.5 L 125.166 285.168 L 127.961 287.958 L 255.923 212.32 Z"
        fill="#2e2e2e"
        stroke-width="1"/>
    <path
        d="M 127.962 0 L 0 212.32 L 127.962 287.959 L 127.962 154.158 Z"
        fill="#4b4b4b"
        stroke-width="1"/>
    <path
        d="M 127.961 312.187 L 126.386 314.107 L 126.386 412.306 L 127.961 416.907 L 255.999 236.587 Z"
        fill="#353534"
        stroke-width="1"/>
    <path
        d="M 127.962 416.905 L 127.962 312.185 L 0 236.585 Z"
        fill="#4b4b4b"
        stroke-width="1"/>
    <path
        d="M 127.961 287.958 L 255.921 212.321 L 127.961 154.159 Z"
        fill="#141414"
        stroke-width="1"/>
    <path
        d="M 0.001 212.321 L 127.961 287.958 L 127.961 154.159 Z"
        fill="#393939"
        stroke-width="1"/>
</svg>

<svg
    viewBox="0 0 256 417"
    width="256px"
    height="417px"
    x="3072px"
    y="0px">
    <path
        d="M 127.961 0 L 125.166 9.5 L 125.166 285.168 L 127.961 287.958 L 255.923 212.32 Z"
        fill="#252525"
        stroke-width="1"/>
    <path
        d="M 127.962 0 L 0 212.32 L 127.962 287.959 L 127.962 154.158 Z"
        fill="#626262"
        stroke-width="1"/>
    <path
        d="M 127.961 312.187 L 126.386 314.107 L 126.386 412.306 L 127.961 416.907 L 255.999 236.587 Z"
        fill="#292929"
        stroke-width="1"/>
    <path
        d="M 127.962 416.905 L 127.962 312.185 L 0 236.585 Z"
        fill="#626262"
        stroke-width="1"/>
    <path
        d="M 127.961 287.958 L 255.921 212.321 L 127.961 154.159 Z"
        fill="#141414"
        stroke-width="1"/>
    <path
        d="M 0.001 212.321 L 127.961 287.958 L 127.961 154.159 Z"
        fill="#393939"
        stroke-width="1"/>
</svg>

<svg
    viewBox="0 0 256 417"
    width="256px"
    height="417px"
    x="3328px"
    y="0px">
    <path
        d="M 127.961 0 L 125.166 9.5 L 125.166 285.168 L 127.961 287.958 L 255.923 212.32 Z"
        fill="#1e1e1e"
        stroke-width="1"/>
    <path
        d="M 127.962 0 L 0 212.32 L 127.962 287.959 L 127.962 154.158 Z"
        fill="#747474"
        stroke-width="1"/>
    <path
        d="M 127.961 312.187 L 126.386 314.107 L 126.386 412.306 L 127.961 416.907 L 255.999 236.587 Z"
        fill="#202020"
        stroke-width="1"/>
    <path
        d="M 127.962 416.905 L 127.962 312.185 L 0 236.585 Z"
        fill="#747474"
        stroke-width="1"/>
    <path
        d="M 127.961 287.958 L 255.921 212.321 L 127.961 154.159 Z"
        fill="#141414"
        stroke-width="1"/>
    <path
        d="M 0.001 212.321 L 127.961 287.958 L 127.961 154.159 Z"
        fill="#393939"
        stroke-width="1"/>
</svg>

<svg
    viewBox="0 0 256 417"
    width="256px"
    height="417px"
    x="3584px"
    y="0px">
    <path
        d="M 127.961 0 L 125.166 9.5 L 125.166 285.168 L 127.961 287.958 L 255.923 212.32 Z"
        fill="#191919"
        stroke-width="1"/>
    <path
        d="M 127.962 0 L 0 212.32 L 127.962 287.959 L 127.962 154.158 Z"
        fill="#7f7f7f"
        stroke-width="1"/>
    <path
        d="M 127.961 312.187 L 126.386 314.107 L 126.386 412.306 L 127.961 416.907 L 255.999 236.587 Z"
        fill="#1a1a1a"
        stroke-width="1"/>
    <path
        d="M 127.962 416.905 L 127.962 312.185 L 0 236.585 Z"
        fill="#7f7f7f"
        stroke-width="1"/>
    <path
        d="M 127.961 287.958 L 255.921 212.321 L 127.961 154.159 Z"
        fill="#141414"
        stroke-width="1"/>
    <path
        d="M 0.001 212.321 L 127.961 287.958 L 127.961 154.159 Z"
        fill="#393939"
        stroke-width="1"/>
</svg>

<svg
    viewBox="0 0 256 417"
    width="256px"
    height="417px"
    x="3840px"
    y="0px">
    <path
        d="M 127.961 0 L 125.166 9.5 L 125.166 285.168 L 127.961 287.958 L 255.923 212.32 Z"
        fill="#161616"
        stroke-width="1"/>
    <path
        d="M 127.962 0 L 0 212.32 L 127.962 287.959 L 127.962 154.158 Z"
        fill="#868686"
        stroke-width="1"/>
    <path
        d="M 127.961 312.187 L 126.386 314.107 L 126.386 412.306 L 127.961 416.907 L 255.999 236.587 Z"
        fill="#171717"
        stroke-width="1"/>
    <path
        d="M 127.962 416.905 L 127.962 312.185 L 0 236.585 Z"
        fill="#868686"
        stroke-width="1"/>
    <path
        d="M 127.961 287.958 L 255.921 212.321 L 127.961 154.159 Z"
        fill="#141414"
        stroke-width="1"/>
    <path
        d="M 0.001 212.321 L 127.961 287.958 L 127.961 154.159 Z"
        fill="#393939"
        stroke-width="1"/>
</svg>

<svg
    viewBox="0 0 256 417"
    width="256px"
    height="417px"
    x="4096px"
    y="0px">
    <path
        d="M 127.961 0 L 125.166 9.5 L 125.166 285.168 L 127.961 287.958 L 255.923 212.32 Z"
        fill="#151515"
        stroke-width="1"/>
    <path
        d="M 127.962 0 L 0 212.32 L 127.962 287.959 L 127.962 154.158 Z"
        fill="#8a8a8a"
        stroke-width="1"/>
    <path
        d="M 127.961 312.187 L 126.386 314.107 L 126.386 412.306 L 127.961 416.907 L 255.999 236.587 Z"
        fill="#151515"
        stroke-width="1"/>
    <path
        d="M 127.962 416.905 L 127.962 312.185 L 0 236.585 Z"
        fill="#8a8a8a"
        stroke-width="1"/>
    <path
        d="M 127.961 287.958 L 255.921 212.321 L 127.961 154.159 Z"
        fill="#141414"
        stroke-width="1"/>
    <path
        d="M 0.001 212.321 L 127.961 287.958 L 127.961 154.159 Z"
        fill="#393939"
        stroke-width="1"/>
</svg>

<svg
    viewBox="0 0 256 417"
    width="256px"
    height="417px"
    x="4352px"
    y="0px">
    <path
        d="M 127.961 0 L 125.166 9.5 L 125.166 285.168 L 127.961 287.958 L 255.923 212.32 Z"
        fill="#141414"
        stroke-width="1"/>
    <path
        d="M 127.962 0 L 0 212.32 L 127.962 287.959 L 127.962 154.158 Z"
        fill="#8c8c8c"
        stroke-width="1"/>
    <path
        d="M 127.961 312.187 L 126.386 314.107 L 126.386 412.306 L 127.961 416.907 L 255.999 236.587 Z"
        fill="#141414"
        stroke-width="1"/>
    <path
        d="M 127.962 416.905 L 127.962 312.185 L 0 236.585 Z"
        fill="#8c8c8c"
        stroke-width="1"/>
    <path
        d="M 127.961 287.958 L 255.921 212.321 L 127.961 154.159 Z"
        fill="#141414"
        stroke-width="1"/>
    <path
        d="M 0.001 212.321 L 127.961 287.958 L 127.961 154.159 Z"
        fill="#393939"
        stroke-width="1"/>
</svg>

<svg
    viewBox="0 0 256 417"
    width="256px"
    height="417px"
    x="4608px"
    y="0px">
    <path
        d="M 127.961 0 L 125.166 9.5 L 125.166 285.168 L 127.961 287.958 L 255.923 212.32 Z"
        fill="#141414"
        stroke-width="1"/>
    <path
        d="M 127.962 0 L 0 212.32 L 127.962 287.959 L 127.962 154.158 Z"
        fill="#8c8c8c"
        stroke-width="1"/>
    <path
        d="M 127.961 312.187 L 126.386 314.107 L 126.386 412.306 L 127.961 416.907 L 255.999 236.587 Z"
        fill="#141414"
        stroke-width="1"/>
    <path
        d="M 127.962 416.905 L 127.962 312.185 L 0 236.585 Z"
        fill="#8c8c8c"
        stroke-width="1"/>
    <path
        d="M 127.961 287.958 L 255.921 212.321 L 127.961 154.159 Z"
        fill="#141414"
        stroke-width="1"/>
    <path
        d="M 0.001 212.321 L 127.961 287.958 L 127.961 154.159 Z"
        fill="#393939"
        stroke-width="1"/>
</svg>

<svg
    viewBox="0 0 256 417"
    width="256px"
    height="417px"
    x="4864px"
    y="0px">
    <path
        d="M 127.961 0 L 125.166 9.5 L 125.166 285.168 L 127.961 287.958 L 255.923 212.32 Z"
        fill="#151515"
        stroke-width="1"/>
    <path
        d="M 127.962 0 L 0 212.32 L 127.962 287.959 L 127.962 154.158 Z"
        fill="#8c8c8c"
        stroke-width="1"/>
    <path
        d="M 127.961 312.187 L 126.386 314.107 L 126.386 412.306 L 127.961 416.907 L 255.999 236.587 Z"
        fill="#151515"
        stroke-width="1"/>
    <path
        d="M 127.962 416.905 L 127.962 312.185 L 0 236.585 Z"
        fill="#8c8c8c"
        stroke-width="1"/>
    <path
        d="M 127.961 287.958 L 255.921 212.321 L 127.961 154.159 Z"
        fill="#141414"
        stroke-width="1"/>
    <path
        d="M 0.001 212.321 L 127.961 287.958 L 127.961 154.159 Z"
        fill="#393939"
        stroke-width="1"/>
</svg>

<svg
    viewBox="0 0 256 417"
    width="256px"
    height="417px"
    x="5120px"
    y="0px">
    <path
        d="M 127.961 0 L 125.166 9.5 L 125.166 285.168 L 127.961 287.958 L 255.923 212.32 Z"
        fill="#171717"
        stroke-width="1"/>
    <path
        d="M 127.962 0 L 0 212.32 L 127.962 287.959 L 127.962 154.158 Z"
        fill="#8c8c8c"
        stroke-width="1"/>
    <path
        d="M 127.961 312.187 L 126.386 314.107 L 126.386 412.306 L 127.961 416.907 L 255.999 236.587 Z"
        fill="#181818"
        stroke-width="1"/>
    <path
        d="M 127.962 416.905 L 127.962 312.185 L 0 236.585 Z"
        fill="#8c8c8c"
        stroke-width="1"/>
    <path
        d="M 127.961 287.958 L 255.921 212.321 L 127.961 154.159 Z"
        fill="#141414"
        stroke-width="1"/>
    <path
        d="M 0.001 212.321 L 127.961 287.958 L 127.961 154.159 Z"
        fill="#393939"
        stroke-width="1"/>
</svg>

<svg
    viewBox="0 0 256 417"
    width="256px"
    height="417px"
    x="5376px"
    y="0px">
    <path
        d="M 127.961 0 L 125.166 9.5 L 125.166 285.168 L 127.961 287.958 L 255.923 212.32 Z"
        fill="#1c1c1c"
        stroke-width="1"/>
    <path
        d="M 127.962 0 L 0 212.32 L 127.962 287.959 L 127.962 154.158 Z"
        fill="#8c8c8c"
        stroke-width="1"/>
    <path
        d="M 127.961 312.187 L 126.386 314.107 L 126.386 412.306 L 127.961 416.907 L 255.999 236.587 Z"
        fill="#1e1e1e"
        stroke-width="1"/>
    <path
        d="M 127.962 416.905 L 127.962 312.185 L 0 236.585 Z"
        fill="#8c8c8c"
        stroke-width="1"/>
    <path
        d="M 127.961 287.958 L 255.921 212.321 L 127.961 154.159 Z"
        fill="#141414"
        stroke-width="1"/>
    <path
        d="M 0.001 212.321 L 127.961 287.958 L 127.961 154.159 Z"
        fill="#393939"
        stroke-width="1"/>
</svg>

<svg
    viewBox="0 0 256 417"
    width="256px"
    height="417px"
    x="5632px"
    y="0px">
    <path
        d="M 127.961 0 L 125.166 9.5 L 125.166 285.168 L 127.961 287.958 L 255.923 212.32 Z"
        fill="#232323"
        stroke-width="1"/>
    <path
        d="M 127.962 0 L 0 212.32 L 127.962 287.959 L 127.962 154.158 Z"
        fill="#8c8c8c"
        stroke-width="1"/>
    <path
        d="M 127.961 312.187 L 126.386 314.107 L 126.386 412.306 L 127.961 416.907 L 255.999 236.587 Z"
        fill="#272726"
        stroke-width="1"/>
    <path
        d="M 127.962 416.905 L 127.962 312.185 L 0 236.585 Z"
        fill="#8c8c8c"
        stroke-width="1"/>
    <path
        d="M 127.961 287.958 L 255.921 212.321 L 127.961 154.159 Z"
        fill="#141414"
        stroke-width="1"/>
    <path
        d="M 0.001 212.321 L 127.961 287.958 L 127.961 154.159 Z"
        fill="#393939"
        stroke-width="1"/>
</svg>

<svg
    viewBox="0 0 256 417"
    width="256px"
    height="417px"
    x="5888px"
    y="0px">
    <path
        d="M 127.961 0 L 125.166 9.5 L 125.166 285.168 L 127.961 287.958 L 255.923 212.32 Z"
        fill="#292929"
        stroke-width="1"/>
    <path
        d="M 127.962 0 L 0 212.32 L 127.962 287.959 L 127.962 154.158 Z"
        fill="#8c8c8c"
        stroke-width="1"/>
    <path
        d="M 127.961 312.187 L 126.386 314.107 L 126.386 412.306 L 127.961 416.907 L 255.999 236.587 Z"
        fill="#2e2e2d"
        stroke-width="1"/>
    <path
        d="M 127.962 416.905 L 127.962 312.185 L 0 236.585 Z"
        fill="#8c8c8c"
        stroke-width="1"/>
    <path
        d="M 127.961 287.958 L 255.921 212.321 L 127.961 154.159 Z"
        fill="#141414"
        stroke-width="1"/>
    <path
        d="M 0.001 212.321 L 127.961 287.958 L 127.961 154.159 Z"
        fill="#393939"
        stroke-width="1"/>
</svg>

<svg
    viewBox="0 0 256 417"
    width="256px"
    height="417px"
    x="6144px"
    y="0px">
    <path
        d="M 127.961 0 L 125.166 9.5 L 125.166 285.168 L 127.961 287.958 L 255.923 212.32 Z"
        fill="#2d2d2d"
        stroke-width="1"/>
    <path
        d="M 127.962 0 L 0 212.32 L 127.962 287.959 L 127.962 154.158 Z"
        fill="#8c8c8c"
        stroke-width="1"/>
    <path
        d="M 127.961 312.187 L 126.386 314.107 L 126.386 412.306 L 127.961 416.907 L 255.999 236.587 Z"
        fill="#333332"
        stroke-width="1"/>
    <path
        d="M 127.962 416.905 L 127.962 312.185 L 0 236.585 Z"
        fill="#8c8c8c"
        stroke-width="1"/>
    <path
        d="M 127.961 287.958 L 255.921 212.321 L 127.961 154.159 Z"
        fill="#141414"
        stroke-width="1"/>
    <path
        d="M 0.001 212.321 L 127.961 287.958 L 127.961 154.159 Z"
        fill="#393939"
        stroke-width="1"/>
</svg>

<svg
    viewBox="0 0 256 417"
    width="256px"
    height="417px"
    x="6400px"
    y="0px">
    <path
        d="M 127.961 0 L 125.166 9.5 L 125.166 285.168 L 127.961 287.958 L 255.923 212.32 Z"
        fill="#303030"
        stroke-width="1"/>
    <path
        d="M 127.962 0 L 0 212.32 L 127.962 287.959 L 127.962 154.158 Z"
        fill="#8c8c8c"
        stroke-width="1"/>
    <path
        d="M 127.961 312.187 L 126.386 314.107 L 126.386 412.306 L 127.961 416.907 L 255.999 236.587 Z"
        fill="#373736"
        stroke-width="1"/>
    <path
        d="M 127.962 416.905 L 127.962 312.185 L 0 236.585 Z"
        fill="#8c8c8c"
        stroke-width="1"/>
    <path
        d="M 127.961 287.958 L 255.921 212.321 L 127.961 154.159 Z"
        fill="#141414"
        stroke-width="1"/>
    <path
        d="M 0.001 212.321 L 127.961 287.958 L 127.961 154.159 Z"
        fill="#393939"
        stroke-width="1"/>
</svg>

<svg
    viewBox="0 0 256 417"
    width="256px"
    height="417px"
    x="6656px"
    y="0px">
    <path
        d="M 127.961 0 L 125.166 9.5 L 125.166 285.168 L 127.961 287.958 L 255.923 212.32 Z"
        fill="#313131"
        stroke-width="1"/>
    <path
        d="M 127.962 0 L 0 212.32 L 127.962 287.959 L 127.962 154.158 Z"
        fill="#8c8c8c"
        stroke-width="1"/>
    <path
        d="M 127.961 312.187 L 126.386 314.107 L 126.386 412.306 L 127.961 416.907 L 255.999 236.587 Z"
        fill="#393938"
        stroke-width="1"/>
    <path
        d="M 127.962 416.905 L 127.962 312.185 L 0 236.585 Z"
        fill="#8c8c8c"
        stroke-width="1"/>
    <path
        d="M 127.961 287.958 L 255.921 212.321 L 127.961 154.159 Z"
        fill="#141414"
        stroke-width="1"/>
    <path
        d="M 0.001 212.321 L 127.961 287.958 L 127.961 154.159 Z"
        fill="#393939"
        stroke-width="1"/>
</svg>

<svg
    viewBox="0 0 256 417"
    width="256px"
    height="417px"
    x="6912px"
    y="0px">
    <path
        d="M 127.961 0 L 125.166 9.5 L 125.166 285.168 L 127.961 287.958 L 255.923 212.32 Z"
        fill="#333333"
        stroke-width="1"/>
    <path
        d="M 127.962 0 L 0 212.32 L 127.962 287.959 L 127.962 154.158 Z"
        fill="#8c8c8c"
        stroke-width="1"/>
    <path
        d="M 127.961 312.187 L 126.386 314.107 L 126.386 412.306 L 127.961 416.907 L 255.999 236.587 Z"
        fill="#3a3a39"
        stroke-width="1"/>
    <path
        d="M 127.962 416.905 L 127.962 312.185 L 0 236.585 Z"
        fill="#8c8c8c"
        stroke-width="1"/>
    <path
        d="M 127.961 287.958 L 255.921 212.321 L 127.961 154.159 Z"
        fill="#141414"
        stroke-width="1"/>
    <path
        d="M 0.001 212.321 L 127.961 287.958 L 127.961 154.159 Z"
        fill="#393939"
        stroke-width="1"/>
</svg>

<svg
    viewBox="0 0 256 417"
    width="256px"
    height="417px"
    x="7168px"
    y="0px">
    <path
        d="M 127.961 0 L 125.166 9.5 L 125.166 285.168 L 127.961 287.958 L 255.923 212.32 Z"
        fill="#333333"
        stroke-width="1"/>
    <path
        d="M 127.962 0 L 0 212.32 L 127.962 287.959 L 127.962 154.158 Z"
        fill="#8c8c8c"
        stroke-width="1"/>
    <path
        d="M 127.961 312.187 L 126.386 314.107 L 126.386 412.306 L 127.961 416.907 L 255.999 236.587 Z"
        fill="#3b3b3a"
        stroke-width="1"/>
    <path
        d="M 127.962 416.905 L 127.962 312.185 L 0 236.585 Z"
        fill="#8c8c8c"
        stroke-width="1"/>
    <path
        d="M 127.961 287.958 L 255.921 212.321 L 127.961 154.159 Z"
        fill="#141414"
        stroke-width="1"/>
    <path
        d="M 0.001 212.321 L 127.961 287.958 L 127.961 154.159 Z"
        fill="#393939"
        stroke-width="1"/>
</svg>

<svg
    viewBox="0 0 256 417"
    width="256px"
    height="417px"
    x="7424px"
    y="0px">
    <path
        d="M 127.961 0 L 125.166 9.5 L 125.166 285.168 L 127.961 287.958 L 255.923 212.32 Z"
        fill="#343434"
        stroke-width="1"/>
    <path
        d="M 127.962 0 L 0 212.32 L 127.962 287.959 L 127.962 154.158 Z"
        fill="#8c8c8c"
        stroke-width="1"/>
    <path
        d="M 127.961 312.187 L 126.386 314.107 L 126.386 412.306 L 127.961 416.907 L 255.999 236.587 Z"
        fill="#3c3c3b"
        stroke-width="1"/>
    <path
        d="M 127.962 416.905 L 127.962 312.185 L 0 236.585 Z"
        fill="#8c8c8c"
        stroke-width="1"/>
    <path
        d="M 127.961 287.958 L 255.921 212.321 L 127.961 154.159 Z"
        fill="#141414"
        stroke-width="1"/>
    <path
        d="M 0.001 212.321 L 127.961 287.958 L 127.961 154.159 Z"
        fill="#393939"
        stroke-width="1"/>
</svg>

<svg
    viewBox="0 0 256 417"
    width="256px"
    height="417px"
    x="7680px"
    y="0px">
    <path
        d="M 127.961 0 L 125.166 9.5 L 125.166 285.168 L 127.961 287.958 L 255.923 212.32 Z"
        fill="#343434"
        stroke-width="1"/>
    <path
        d="M 127.962 0 L 0 212.32 L 127.962 287.959 L 127.962 154.158 Z"
        fill="#8c8c8c"
        stroke-width="1"/>
    <path
        d="M 127.961 312.187 L 126.386 314.107 L 126.386 412.306 L 127.961 416.907 L 255.999 236.587 Z"
        fill="#3c3c3b"
        stroke-width="1"/>
    <path
        d="M 127.962 416.905 L 127.962 312.185 L 0 236.585 Z"
        fill="#8c8c8c"
        stroke-width="1"/>
    <path
        d="M 127.961 287.958 L 255.921 212.321 L 127.961 154.159 Z"
        fill="#141414"
        stroke-width="1"/>
    <path
        d="M 0.001 212.321 L 127.961 287.958 L 127.961 154.159 Z"
        fill="#393939"
        stroke-width="1"/>
</svg>

</svg>
