<?xml version="1.0" encoding="utf-8"?>
<!-- Generator: Adobe Illustrator 22.1.0, SVG Export Plug-In . SVG Version: 6.00 Build 0)  -->
<svg version="1.1" id="Layer_1" xmlns="http://www.w3.org/2000/svg" xmlns:xlink="http://www.w3.org/1999/xlink" x="0px" y="0px"
	 viewBox="0 0 1100 350" style="enable-background:new 0 0 1100 350;" xml:space="preserve">
<style type="text/css">
	.st0{fill:#FFFFFF;stroke:#000000;}
	.st1{fill:none;stroke:#000000;}
	.st2{font-family:'ArialMT';}
	.st3{font-size:12px;}
	.st4{fill:none;stroke:#000000;stroke-miterlimit:10;}
	.st5{stroke:#000000;stroke-miterlimit:10;}
	.st6{font-size:16px;}
</style>
<ellipse pointer-events="none" class="st0" cx="56.5" cy="119.5" rx="20" ry="20"/>
<ellipse pointer-events="none" class="st1" cx="56.5" cy="119.5" rx="16" ry="16"/>
<path pointer-events="none" class="st0" d="M138.5,79.5h126c6.6,0,12,5.4,12,12v56c0,6.6-5.4,12-12,12h-126c-6.6,0-12-5.4-12-12v-56
	C126.5,84.9,131.9,79.5,138.5,79.5z"/>
<g transform="translate(189.5,194.5)scale(0.9999999999999999)">
	<text transform="matrix(1 0 0 1 -15.0605 -70.5)" class="st2 st3">DEFAULT</text>
</g>
<path pointer-events="none" class="st0" d="M358.5,79.5h126c6.6,0,12,5.4,12,12v56c0,6.6-5.4,12-12,12h-126c-6.6,0-12-5.4-12-12v-56
	C346.5,84.9,351.9,79.5,358.5,79.5z"/>
<g transform="translate(411.5,194.5)scale(0.9999999999999999)">
	<text transform="matrix(1 0 0 1 -14.5137 -70.5)" class="st2 st3">RAISING</text>
</g>
<path pointer-events="none" class="st0" d="M598.5,19.5h126c6.6,0,12,5.4,12,12v56c0,6.6-5.4,12-12,12h-126c-6.6,0-12-5.4-12-12v-56
	C586.5,24.9,591.9,19.5,598.5,19.5z"/>
<g transform="translate(633.5,134.5)scale(0.9999999999999999)">
	<text transform="matrix(1 0 0 1 -13.0615 -72.48)" class="st2 st3">DISTRIBUTION</text>
</g>
<path pointer-events="none" class="st0" d="M598.5,139.5h126c6.6,0,12,5.4,12,12v56c0,6.6-5.4,12-12,12h-126c-6.6,0-12-5.4-12-12
	v-56C586.5,144.9,591.9,139.5,598.5,139.5z"/>
<g transform="translate(634.5,254.5)scale(0.9999999999999999)">
	<text transform="matrix(1 0 0 1 -14.8574 -69.58)" class="st2 st3">MONEY_BACK</text>
</g>
<path pointer-events="none" class="st0" d="M848.5,79.5h126c6.6,0,12,5.4,12,12v56c0,6.6-5.4,12-12,12h-126c-6.6,0-12-5.4-12-12v-56
	C836.5,84.9,841.9,79.5,848.5,79.5z"/>
<g transform="translate(885.5,194.5)scale(0.9999999999999999)">
	<text transform="matrix(1 0 0 1 -17.084 -70.5)" class="st2 st3">DEPRECATED</text>
</g>
<path pointer-events="none" class="st4" d="M29,279h1033.6"/>
<path pointer-events="none" class="st5" d="M1067.9,279l-7,3.5l1.8-3.5l-1.8-3.5L1067.9,279z"/>
<path pointer-events="none" class="st4" d="M76.1,119.4h44.2"/>
<path pointer-events="none" class="st5" d="M125.5,119.4l-7,3.5l1.8-3.5l-1.8-3.5L125.5,119.4z"/>
<path pointer-events="none" class="st4" d="M276.1,119.4h64.2"/>
<path pointer-events="none" class="st5" d="M345.5,119.4l-7,3.5l1.8-3.5l-1.8-3.5L345.5,119.4z"/>
<path pointer-events="none" class="st4" d="M496.1,99.4L580.8,62"/>
<path pointer-events="none" class="st5" d="M585.6,59.9l-5,6l0.2-3.9l-3-2.5L585.6,59.9z"/>
<path pointer-events="none" class="st4" d="M496.1,139.4l84.7,37.4"/>
<path pointer-events="none" class="st5" d="M585.6,179l-7.8,0.4l3-2.5l-0.2-3.9L585.6,179z"/>
<path pointer-events="none" class="st4" d="M736.1,59.4l94.1,37.6"/>
<path pointer-events="none" class="st5" d="M835.1,99l-7.8,0.6l2.9-2.6l-0.3-3.9L835.1,99z"/>
<path pointer-events="none" class="st4" d="M737.2,188.9l93.3-46.6"/>
<path pointer-events="none" class="st5" d="M835.1,139.9l-4.7,6.3v-3.9l-3.1-2.4H835.1z"/>
<g transform="translate(998.5,374.5)scale(0.9999999999999999)">
	<text transform="matrix(1 0 0 1 -15.6172 -65.5)" class="st2 st6">TIME LINE</text>
</g>
<g transform="translate(292.5,328.5)scale(0.9999999999999999)">
	<text transform="matrix(1 0 0 1 -15.1865 -70.5)" class="st2 st3">Launch time</text>
</g>
<g transform="translate(395.5,391.5)scale(0.9999999999999999)">
	<text transform="matrix(1 0 0 1 -15.5205 -70.5)" class="st2 st3">Raising Period</text>
</g>
<g transform="translate(634.5,396.5)scale(0.9999999999999999)">
	<text transform="matrix(1 0 0 1 -14.8574 -70.5)" class="st2 st3">Distribution period</text>
</g>
<path pointer-events="none" class="st4" d="M539,279.5l0.5-22"/>
<path pointer-events="none" class="st4" d="M304,279.5v6.5c0,4.3,3.3,6.5,10,6.5h97.5c6.7,0,10,2.2,10,6.5v3.3c0,2.2,0,1.1,0-3.3
	v-3.3c0-2.2,3.3-3.3,10-3.3H529c6.7,0,10-2.2,10-6.5v-6.5"/>
<path pointer-events="none" class="st4" d="M304,267.5v10"/>
<path pointer-events="none" class="st4" d="M539.5,279.5v6.5c0,4.3,3.3,6.5,10,6.5H657c6.7,0,10,2.2,10,6.5v3.3c0,2.2,0,1.1,0-3.3
	v-3.3c0-2.2,3.3-3.3,10-3.3h107.5c6.7,0,10-2.2,10-6.5v-6.5"/>
<g transform="translate(464.5,311.5)scale(0.9999999999999999)">
	<text transform="matrix(1 0 0 1 -71.2227 -63.5)" class="st2 st3">State сhange to DISTRIBUTION or MONEY_BACK</text>
</g>
<g transform="translate(758.5,312.5)scale(0.9999999999999999)">
	<text transform="matrix(1 0 0 1 -42.7607 -63.5)" class="st2 st3">State change to DEPRECATED</text>
</g>
<path pointer-events="none" class="st4" d="M794.5,257.5v20"/>
<path pointer-events="none" class="st4" d="M542.5,257.3L542.5,257.3"/>
<path pointer-events="none" class="st5" d="M542.5,257.3L542.5,257.3L542.5,257.3L542.5,257.3z"/>
</svg>
