<?xml version="1.0" encoding="UTF-8"?>
<svg width="420px" height="348px" viewBox="0 0 420 348" version="1.1" xmlns="http://www.w3.org/2000/svg" xmlns:xlink="http://www.w3.org/1999/xlink">
    <!-- Generator: Sketch 48.2 (47327) - http://www.bohemiancoding.com/sketch -->
    <title>Group 14</title>
    <desc>Created with Sketch.</desc>
    <defs></defs>
    <g id="Desktop-HD-Copy" stroke="none" stroke-width="1" fill="none" fill-rule="evenodd" transform="translate(-227.000000, -3851.000000)">
        <g id="Group-17" transform="translate(2.000000, 3565.000000)">
            <g id="Group-14" transform="translate(225.000000, 286.000000)">
                <path d="M250.195312,328.060927 L211.640625,343.896226 L211.640625,297.354167 L250.195312,281.518868 L250.195312,328.060927 Z M169.804688,281.518868 L208.359375,297.354527 L208.359375,343.896226 L169.804688,328.061985 L169.804688,281.518868 Z M209.589844,264.283019 L246.914062,279.877358 L209.589844,295.471698 L172.265625,279.877358 L209.589844,264.283019 Z M252.597953,279.15504 C252.586578,279.113679 252.568094,279.076598 252.552453,279.03809 C252.521172,278.956795 252.487047,278.878353 252.441547,278.80419 C252.415953,278.76283 252.388937,278.725748 252.359078,278.68724 C252.310734,278.621634 252.256703,278.561733 252.195562,278.506111 C252.160016,278.471881 252.124469,278.440505 252.084656,278.410554 C252.061906,278.393439 252.044844,278.372046 252.022094,278.356358 C251.969484,278.320702 251.911187,278.300735 251.855734,278.272211 C251.827297,278.257949 251.805969,278.236555 251.776109,278.223719 L210.541734,261.109106 C210.191953,260.963631 209.802359,260.963631 209.452578,261.109106 L168.218203,278.223719 C168.188344,278.236555 168.165594,278.257949 168.137156,278.272211 C168.081703,278.299309 168.024828,278.320702 167.973641,278.354932 C167.950891,278.37062 167.933828,278.392013 167.911078,278.409128 C167.871266,278.439078 167.837141,278.471881 167.801594,278.504684 C167.741875,278.560307 167.687844,278.620208 167.638078,278.685814 C167.608219,278.724322 167.581203,278.761404 167.555609,278.802764 C167.510109,278.876927 167.475984,278.955369 167.444703,279.036664 C167.429062,279.076598 167.410578,279.112253 167.399203,279.153613 C167.3665,279.279121 167.34375,279.408906 167.34375,279.541545 L167.34375,329.459168 C167.34375,330.036787 167.690687,330.557356 168.221047,330.776994 L209.455422,347.891607 C209.473906,347.898739 209.493812,347.895886 209.512297,347.903017 C209.670125,347.961492 209.832219,348 210,348 C210.167781,348 210.329875,347.961492 210.487703,347.903017 C210.506188,347.895886 210.526094,347.898739 210.544578,347.891607 L251.778953,330.776994 C252.309313,330.557356 252.65625,330.036787 252.65625,329.459168 L252.65625,279.541545 C252.65625,279.408906 252.6335,279.279121 252.597953,279.15504 Z" id="cube" fill="#0da9ff"></path>
                <path d="M333.867188,328.060927 L295.3125,343.896226 L295.3125,297.354167 L333.867188,281.518868 L333.867188,328.060927 Z M253.476562,281.518868 L292.03125,297.354527 L292.03125,343.896226 L253.476562,328.061985 L253.476562,281.518868 Z M293.261719,264.283019 L330.585938,279.877358 L293.261719,295.471698 L255.9375,279.877358 L293.261719,264.283019 Z M336.269828,279.15504 C336.258453,279.113679 336.239969,279.076598 336.224328,279.03809 C336.193047,278.956795 336.158922,278.878353 336.113422,278.80419 C336.087828,278.76283 336.060812,278.725748 336.030953,278.68724 C335.982609,278.621634 335.928578,278.561733 335.867437,278.506111 C335.831891,278.471881 335.796344,278.440505 335.756531,278.410554 C335.733781,278.393439 335.716719,278.372046 335.693969,278.356358 C335.641359,278.320702 335.583062,278.300735 335.527609,278.272211 C335.499172,278.257949 335.477844,278.236555 335.447984,278.223719 L294.213609,261.109106 C293.863828,260.963631 293.474234,260.963631 293.124453,261.109106 L251.890078,278.223719 C251.860219,278.236555 251.837469,278.257949 251.809031,278.272211 C251.753578,278.299309 251.696703,278.320702 251.645516,278.354932 C251.622766,278.37062 251.605703,278.392013 251.582953,278.409128 C251.543141,278.439078 251.509016,278.471881 251.473469,278.504684 C251.41375,278.560307 251.359719,278.620208 251.309953,278.685814 C251.280094,278.724322 251.253078,278.761404 251.227484,278.802764 C251.181984,278.876927 251.147859,278.955369 251.116578,279.036664 C251.100937,279.076598 251.082453,279.112253 251.071078,279.153613 C251.038375,279.279121 251.015625,279.408906 251.015625,279.541545 L251.015625,329.459168 C251.015625,330.036787 251.362562,330.557356 251.892922,330.776994 L293.127297,347.891607 C293.145781,347.898739 293.165687,347.895886 293.184172,347.903017 C293.342,347.961492 293.504094,348 293.671875,348 C293.839656,348 294.00175,347.961492 294.159578,347.903017 C294.178063,347.895886 294.197969,347.898739 294.216453,347.891607 L335.450828,330.776994 C335.981188,330.557356 336.328125,330.036787 336.328125,329.459168 L336.328125,279.541545 C336.328125,279.408906 336.305375,279.279121 336.269828,279.15504 Z" id="cube-copy-6" fill="#0da9ff"></path>
                <path d="M166.523438,328.060927 L127.96875,343.896226 L127.96875,297.354167 L166.523438,281.518868 L166.523438,328.060927 Z M86.1328125,281.518868 L124.6875,297.354527 L124.6875,343.896226 L86.1328125,328.061985 L86.1328125,281.518868 Z M125.917969,264.283019 L163.242188,279.877358 L125.917969,295.471698 L88.59375,279.877358 L125.917969,264.283019 Z M168.926078,279.15504 C168.914703,279.113679 168.896219,279.076598 168.880578,279.03809 C168.849297,278.956795 168.815172,278.878353 168.769672,278.80419 C168.744078,278.76283 168.717062,278.725748 168.687203,278.68724 C168.638859,278.621634 168.584828,278.561733 168.523687,278.506111 C168.488141,278.471881 168.452594,278.440505 168.412781,278.410554 C168.390031,278.393439 168.372969,278.372046 168.350219,278.356358 C168.297609,278.320702 168.239312,278.300735 168.183859,278.272211 C168.155422,278.257949 168.134094,278.236555 168.104234,278.223719 L126.869859,261.109106 C126.520078,260.963631 126.130484,260.963631 125.780703,261.109106 L84.5463281,278.223719 C84.5164688,278.236555 84.4937187,278.257949 84.4652813,278.272211 C84.4098281,278.299309 84.3529531,278.320702 84.3017656,278.354932 C84.2790156,278.37062 84.2619531,278.392013 84.2392031,278.409128 C84.1993906,278.439078 84.1652656,278.471881 84.1297187,278.504684 C84.07,278.560307 84.0159687,278.620208 83.9662031,278.685814 C83.9363438,278.724322 83.9093281,278.761404 83.8837344,278.802764 C83.8382344,278.876927 83.8041094,278.955369 83.7728281,279.036664 C83.7571875,279.076598 83.7387031,279.112253 83.7273281,279.153613 C83.694625,279.279121 83.671875,279.408906 83.671875,279.541545 L83.671875,329.459168 C83.671875,330.036787 84.0188125,330.557356 84.5491719,330.776994 L125.783547,347.891607 C125.802031,347.898739 125.821938,347.895886 125.840422,347.903017 C125.99825,347.961492 126.160344,348 126.328125,348 C126.495906,348 126.658,347.961492 126.815828,347.903017 C126.834313,347.895886 126.854219,347.898739 126.872703,347.891607 L168.107078,330.776994 C168.637438,330.557356 168.984375,330.036787 168.984375,329.459168 L168.984375,279.541545 C168.984375,279.408906 168.961625,279.279121 168.926078,279.15504 Z" id="cube-copy-3" fill="#0da9ff"></path>
                <path d="M82.8515625,328.060927 L44.296875,343.896226 L44.296875,297.354167 L82.8515625,281.518868 L82.8515625,328.060927 Z M2.4609375,281.518868 L41.015625,297.354527 L41.015625,343.896226 L2.4609375,328.061985 L2.4609375,281.518868 Z M42.2460938,264.283019 L79.5703125,279.877358 L42.2460938,295.471698 L4.921875,279.877358 L42.2460938,264.283019 Z M85.2542031,279.15504 C85.2428281,279.113679 85.2243438,279.076598 85.2087031,279.03809 C85.1774219,278.956795 85.1432969,278.878353 85.0977969,278.80419 C85.0722031,278.76283 85.0451875,278.725748 85.0153281,278.68724 C84.9669844,278.621634 84.9129531,278.561733 84.8518125,278.506111 C84.8162656,278.471881 84.7807188,278.440505 84.7409062,278.410554 C84.7181562,278.393439 84.7010937,278.372046 84.6783438,278.356358 C84.6257344,278.320702 84.5674375,278.300735 84.5119844,278.272211 C84.4835469,278.257949 84.4622188,278.236555 84.4323594,278.223719 L43.1979844,261.109106 C42.8482031,260.963631 42.4586094,260.963631 42.1088281,261.109106 L0.874453125,278.223719 C0.84459375,278.236555 0.82184375,278.257949 0.79340625,278.272211 C0.737953125,278.299309 0.681078125,278.320702 0.629890625,278.354932 C0.607140625,278.37062 0.590078125,278.392013 0.567328125,278.409128 C0.527515625,278.439078 0.493390625,278.471881 0.45784375,278.504684 C0.398125,278.560307 0.34409375,278.620208 0.294328125,278.685814 C0.26446875,278.724322 0.237453125,278.761404 0.211859375,278.802764 C0.166359375,278.876927 0.132234375,278.955369 0.100953125,279.036664 C0.0853125,279.076598 0.066828125,279.112253 0.055453125,279.153613 C0.02275,279.279121 0,279.408906 0,279.541545 L0,329.459168 C0,330.036787 0.3469375,330.557356 0.877296875,330.776994 L42.1116719,347.891607 C42.1301562,347.898739 42.1500625,347.895886 42.1685469,347.903017 C42.326375,347.961492 42.4884688,348 42.65625,348 C42.8240312,348 42.986125,347.961492 43.1439531,347.903017 C43.1624375,347.895886 43.1823438,347.898739 43.2008281,347.891607 L84.4352031,330.776994 C84.9655625,330.557356 85.3125,330.036787 85.3125,329.459168 L85.3125,279.541545 C85.3125,279.408906 85.28975,279.279121 85.2542031,279.15504 Z" id="cube-copy-5" fill="#0da9ff"></path>
                <path d="M208.359375,261.579795 L169.804688,277.415094 L169.804688,230.873035 L208.359375,215.037736 L208.359375,261.579795 Z M127.96875,215.037736 L166.523438,230.873395 L166.523438,277.415094 L127.96875,261.580853 L127.96875,215.037736 Z M167.753906,197.801887 L205.078125,213.396226 L167.753906,228.990566 L130.429688,213.396226 L167.753906,197.801887 Z M210.762016,212.673908 C210.750641,212.632547 210.732156,212.595466 210.716516,212.556958 C210.685234,212.475663 210.651109,212.397221 210.605609,212.323058 C210.580016,212.281698 210.553,212.244616 210.523141,212.206108 C210.474797,212.140502 210.420766,212.080601 210.359625,212.024979 C210.324078,211.990749 210.288531,211.959373 210.248719,211.929422 C210.225969,211.912307 210.208906,211.890914 210.186156,211.875226 C210.133547,211.83957 210.07525,211.819603 210.019797,211.791079 C209.991359,211.776817 209.970031,211.755423 209.940172,211.742587 L168.705797,194.627974 C168.356016,194.482499 167.966422,194.482499 167.616641,194.627974 L126.382266,211.742587 C126.352406,211.755423 126.329656,211.776817 126.301219,211.791079 C126.245766,211.818177 126.188891,211.83957 126.137703,211.873799 C126.114953,211.889488 126.097891,211.910881 126.075141,211.927996 C126.035328,211.957946 126.001203,211.990749 125.965656,212.023552 C125.905937,212.079175 125.851906,212.139076 125.802141,212.204682 C125.772281,212.24319 125.745266,212.280272 125.719672,212.321632 C125.674172,212.395795 125.640047,212.474237 125.608766,212.555532 C125.593125,212.595466 125.574641,212.631121 125.563266,212.672481 C125.530563,212.797989 125.507812,212.927774 125.507812,213.060413 L125.507812,262.978036 C125.507812,263.555655 125.85475,264.076224 126.385109,264.295862 L167.619484,281.410475 C167.637969,281.417606 167.657875,281.414754 167.676359,281.421885 C167.834188,281.48036 167.996281,281.518868 168.164062,281.518868 C168.331844,281.518868 168.493938,281.48036 168.651766,281.421885 C168.67025,281.414754 168.690156,281.417606 168.708641,281.410475 L209.943016,264.295862 C210.473375,264.076224 210.820312,263.555655 210.820312,262.978036 L210.820312,213.060413 C210.820312,212.927774 210.797562,212.797989 210.762016,212.673908 Z" id="cube-copy" fill="#0da9ff"></path>
                <path d="M124.6875,261.579795 L86.1328125,277.415094 L86.1328125,230.873035 L124.6875,215.037736 L124.6875,261.579795 Z M44.296875,215.037736 L82.8515625,230.873395 L82.8515625,277.415094 L44.296875,261.580853 L44.296875,215.037736 Z M84.0820312,197.801887 L121.40625,213.396226 L84.0820312,228.990566 L46.7578125,213.396226 L84.0820312,197.801887 Z M127.090141,212.673908 C127.078766,212.632547 127.060281,212.595466 127.044641,212.556958 C127.013359,212.475663 126.979234,212.397221 126.933734,212.323058 C126.908141,212.281698 126.881125,212.244616 126.851266,212.206108 C126.802922,212.140502 126.748891,212.080601 126.68775,212.024979 C126.652203,211.990749 126.616656,211.959373 126.576844,211.929422 C126.554094,211.912307 126.537031,211.890914 126.514281,211.875226 C126.461672,211.83957 126.403375,211.819603 126.347922,211.791079 C126.319484,211.776817 126.298156,211.755423 126.268297,211.742587 L85.0339219,194.627974 C84.6841406,194.482499 84.2945469,194.482499 83.9447656,194.627974 L42.7103906,211.742587 C42.6805313,211.755423 42.6577812,211.776817 42.6293437,211.791079 C42.5738906,211.818177 42.5170156,211.83957 42.4658281,211.873799 C42.4430781,211.889488 42.4260156,211.910881 42.4032656,211.927996 C42.3634531,211.957946 42.3293281,211.990749 42.2937813,212.023552 C42.2340625,212.079175 42.1800312,212.139076 42.1302656,212.204682 C42.1004062,212.24319 42.0733906,212.280272 42.0477969,212.321632 C42.0022969,212.395795 41.9681719,212.474237 41.9368906,212.555532 C41.92125,212.595466 41.9027656,212.631121 41.8913906,212.672481 C41.8586875,212.797989 41.8359375,212.927774 41.8359375,213.060413 L41.8359375,262.978036 C41.8359375,263.555655 42.182875,264.076224 42.7132344,264.295862 L83.9476094,281.410475 C83.9660937,281.417606 83.986,281.414754 84.0044844,281.421885 C84.1623125,281.48036 84.3244063,281.518868 84.4921875,281.518868 C84.6599687,281.518868 84.8220625,281.48036 84.9798906,281.421885 C84.998375,281.414754 85.0182813,281.417606 85.0367656,281.410475 L126.271141,264.295862 C126.8015,264.076224 127.148438,263.555655 127.148438,262.978036 L127.148438,213.060413 C127.148438,212.927774 127.125687,212.797989 127.090141,212.673908 Z" id="cube-copy-4" fill="#0da9ff"></path>
                <path d="M292.03125,261.579795 L253.476562,277.415094 L253.476562,230.873035 L292.03125,215.037736 L292.03125,261.579795 Z M211.640625,215.037736 L250.195312,230.873395 L250.195312,277.415094 L211.640625,261.580853 L211.640625,215.037736 Z M251.425781,197.801887 L288.75,213.396226 L251.425781,228.990566 L214.101562,213.396226 L251.425781,197.801887 Z M294.433891,212.673908 C294.422516,212.632547 294.404031,212.595466 294.388391,212.556958 C294.357109,212.475663 294.322984,212.397221 294.277484,212.323058 C294.251891,212.281698 294.224875,212.244616 294.195016,212.206108 C294.146672,212.140502 294.092641,212.080601 294.0315,212.024979 C293.995953,211.990749 293.960406,211.959373 293.920594,211.929422 C293.897844,211.912307 293.880781,211.890914 293.858031,211.875226 C293.805422,211.83957 293.747125,211.819603 293.691672,211.791079 C293.663234,211.776817 293.641906,211.755423 293.612047,211.742587 L252.377672,194.627974 C252.027891,194.482499 251.638297,194.482499 251.288516,194.627974 L210.054141,211.742587 C210.024281,211.755423 210.001531,211.776817 209.973094,211.791079 C209.917641,211.818177 209.860766,211.83957 209.809578,211.873799 C209.786828,211.889488 209.769766,211.910881 209.747016,211.927996 C209.707203,211.957946 209.673078,211.990749 209.637531,212.023552 C209.577812,212.079175 209.523781,212.139076 209.474016,212.204682 C209.444156,212.24319 209.417141,212.280272 209.391547,212.321632 C209.346047,212.395795 209.311922,212.474237 209.280641,212.555532 C209.265,212.595466 209.246516,212.631121 209.235141,212.672481 C209.202438,212.797989 209.179688,212.927774 209.179688,213.060413 L209.179688,262.978036 C209.179688,263.555655 209.526625,264.076224 210.056984,264.295862 L251.291359,281.410475 C251.309844,281.417606 251.32975,281.414754 251.348234,281.421885 C251.506063,281.48036 251.668156,281.518868 251.835938,281.518868 C252.003719,281.518868 252.165813,281.48036 252.323641,281.421885 C252.342125,281.414754 252.362031,281.417606 252.380516,281.410475 L293.614891,264.295862 C294.14525,264.076224 294.492188,263.555655 294.492188,262.978036 L294.492188,213.060413 C294.492188,212.927774 294.469438,212.797989 294.433891,212.673908 Z" id="cube-copy-2" fill="#0da9ff"></path>
                <path d="M375.703125,261.579795 L337.148438,277.415094 L337.148438,230.873035 L375.703125,215.037736 L375.703125,261.579795 Z M295.3125,215.037736 L333.867188,230.873395 L333.867188,277.415094 L295.3125,261.580853 L295.3125,215.037736 Z M335.097656,197.801887 L372.421875,213.396226 L335.097656,228.990566 L297.773438,213.396226 L335.097656,197.801887 Z M378.105766,212.673908 C378.094391,212.632547 378.075906,212.595466 378.060266,212.556958 C378.028984,212.475663 377.994859,212.397221 377.949359,212.323058 C377.923766,212.281698 377.89675,212.244616 377.866891,212.206108 C377.818547,212.140502 377.764516,212.080601 377.703375,212.024979 C377.667828,211.990749 377.632281,211.959373 377.592469,211.929422 C377.569719,211.912307 377.552656,211.890914 377.529906,211.875226 C377.477297,211.83957 377.419,211.819603 377.363547,211.791079 C377.335109,211.776817 377.313781,211.755423 377.283922,211.742587 L336.049547,194.627974 C335.699766,194.482499 335.310172,194.482499 334.960391,194.627974 L293.726016,211.742587 C293.696156,211.755423 293.673406,211.776817 293.644969,211.791079 C293.589516,211.818177 293.532641,211.83957 293.481453,211.873799 C293.458703,211.889488 293.441641,211.910881 293.418891,211.927996 C293.379078,211.957946 293.344953,211.990749 293.309406,212.023552 C293.249687,212.079175 293.195656,212.139076 293.145891,212.204682 C293.116031,212.24319 293.089016,212.280272 293.063422,212.321632 C293.017922,212.395795 292.983797,212.474237 292.952516,212.555532 C292.936875,212.595466 292.918391,212.631121 292.907016,212.672481 C292.874312,212.797989 292.851562,212.927774 292.851562,213.060413 L292.851562,262.978036 C292.851562,263.555655 293.1985,264.076224 293.728859,264.295862 L334.963234,281.410475 C334.981719,281.417606 335.001625,281.414754 335.020109,281.421885 C335.177937,281.48036 335.340031,281.518868 335.507812,281.518868 C335.675594,281.518868 335.837688,281.48036 335.995516,281.421885 C336.014,281.414754 336.033906,281.417606 336.052391,281.410475 L377.286766,264.295862 C377.817125,264.076224 378.164062,263.555655 378.164062,262.978036 L378.164062,213.060413 C378.164062,212.927774 378.141313,212.797989 378.105766,212.673908 Z" id="cube-copy-7" fill="#0da9ff"></path>
                <path d="M417.539062,328.060927 L378.984375,343.896226 L378.984375,297.354167 L417.539062,281.518868 L417.539062,328.060927 Z M337.148438,281.518868 L375.703125,297.354527 L375.703125,343.896226 L337.148438,328.061985 L337.148438,281.518868 Z M376.933594,264.283019 L414.257812,279.877358 L376.933594,295.471698 L339.609375,279.877358 L376.933594,264.283019 Z M419.941703,279.15504 C419.930328,279.113679 419.911844,279.076598 419.896203,279.03809 C419.864922,278.956795 419.830797,278.878353 419.785297,278.80419 C419.759703,278.76283 419.732687,278.725748 419.702828,278.68724 C419.654484,278.621634 419.600453,278.561733 419.539312,278.506111 C419.503766,278.471881 419.468219,278.440505 419.428406,278.410554 C419.405656,278.393439 419.388594,278.372046 419.365844,278.356358 C419.313234,278.320702 419.254937,278.300735 419.199484,278.272211 C419.171047,278.257949 419.149719,278.236555 419.119859,278.223719 L377.885484,261.109106 C377.535703,260.963631 377.146109,260.963631 376.796328,261.109106 L335.561953,278.223719 C335.532094,278.236555 335.509344,278.257949 335.480906,278.272211 C335.425453,278.299309 335.368578,278.320702 335.317391,278.354932 C335.294641,278.37062 335.277578,278.392013 335.254828,278.409128 C335.215016,278.439078 335.180891,278.471881 335.145344,278.504684 C335.085625,278.560307 335.031594,278.620208 334.981828,278.685814 C334.951969,278.724322 334.924953,278.761404 334.899359,278.802764 C334.853859,278.876927 334.819734,278.955369 334.788453,279.036664 C334.772812,279.076598 334.754328,279.112253 334.742953,279.153613 C334.71025,279.279121 334.6875,279.408906 334.6875,279.541545 L334.6875,329.459168 C334.6875,330.036787 335.034438,330.557356 335.564797,330.776994 L376.799172,347.891607 C376.817656,347.898739 376.837562,347.895886 376.856047,347.903017 C377.013875,347.961492 377.175969,348 377.34375,348 C377.511531,348 377.673625,347.961492 377.831453,347.903017 C377.849938,347.895886 377.869844,347.898739 377.888328,347.891607 L419.122703,330.776994 C419.653063,330.557356 420,330.036787 420,329.459168 L420,279.541545 C420,279.408906 419.97725,279.279121 419.941703,279.15504 Z" id="cube-copy-8" fill="#0da9ff"></path>
                <path d="M250.195312,195.098663 L211.640625,210.933962 L211.640625,164.391903 L250.195312,148.556604 L250.195312,195.098663 Z M169.804688,148.556604 L208.359375,164.392263 L208.359375,210.933962 L169.804688,195.099721 L169.804688,148.556604 Z M209.589844,131.320755 L246.914062,146.915094 L209.589844,162.509434 L172.265625,146.915094 L209.589844,131.320755 Z M252.597953,146.192776 C252.586578,146.151415 252.568094,146.114334 252.552453,146.075826 C252.521172,145.994531 252.487047,145.916089 252.441547,145.841926 C252.415953,145.800566 252.388937,145.763484 252.359078,145.724976 C252.310734,145.65937 252.256703,145.599469 252.195562,145.543846 C252.160016,145.509617 252.124469,145.47824 252.084656,145.44829 C252.061906,145.431175 252.044844,145.409782 252.022094,145.394094 C251.969484,145.358438 251.911187,145.338471 251.855734,145.309947 C251.827297,145.295685 251.805969,145.274291 251.776109,145.261455 L210.541734,128.146842 C210.191953,128.001367 209.802359,128.001367 209.452578,128.146842 L168.218203,145.261455 C168.188344,145.274291 168.165594,145.295685 168.137156,145.309947 C168.081703,145.337045 168.024828,145.358438 167.973641,145.392667 C167.950891,145.408356 167.933828,145.429749 167.911078,145.446864 C167.871266,145.476814 167.837141,145.509617 167.801594,145.54242 C167.741875,145.598043 167.687844,145.657944 167.638078,145.72355 C167.608219,145.762058 167.581203,145.799139 167.555609,145.8405 C167.510109,145.914663 167.475984,145.993105 167.444703,146.074399 C167.429062,146.114334 167.410578,146.149989 167.399203,146.191349 C167.3665,146.316857 167.34375,146.446642 167.34375,146.579281 L167.34375,196.496904 C167.34375,197.074522 167.690687,197.595092 168.221047,197.814729 L209.455422,214.929343 C209.473906,214.936474 209.493812,214.933622 209.512297,214.940753 C209.670125,214.999228 209.832219,215.037736 210,215.037736 C210.167781,215.037736 210.329875,214.999228 210.487703,214.940753 C210.506188,214.933622 210.526094,214.936474 210.544578,214.929343 L251.778953,197.814729 C252.309313,197.595092 252.65625,197.074522 252.65625,196.496904 L252.65625,146.579281 C252.65625,146.446642 252.6335,146.316857 252.597953,146.192776 Z" id="cube-copy-9" fill="#FF6E6D"></path>
                <path d="M210,123.933962 L210,41.8584906" id="Line" stroke="#FF6E6D" stroke-width="3.28125" stroke-linecap="round" stroke-dasharray="7.3828125"></path>
                <path d="M163.283601,143.692083 L87.7734375,111.622642" id="Line-Copy" stroke="#FF6E6D" stroke-width="3.28125" stroke-linecap="round" stroke-dasharray="7.3828125"></path>
                <path d="M332.267976,143.692083 L256.757812,111.622642" id="Line-Copy" stroke="#FF6E6D" stroke-width="3.28125" stroke-linecap="round" stroke-dasharray="7.3828125" transform="translate(294.512894, 127.657362) scale(-1, 1) translate(-294.512894, -127.657362) "></path>
                <path d="M206.6872,24.6621009 L221.476487,9.86484035 L219.149639,7.4578193 L206.6872,19.9664369 L200.850361,14.086992 L198.523513,16.4150943 L206.6872,24.6621009 Z M210,-9.09494702e-13 C212.997311,-9.09494702e-13 215.771096,0.749720369 218.321439,2.2491836 C220.792906,3.66972771 222.7385,5.61637007 224.158278,8.08916909 C225.656934,10.6408872 226.40625,13.4161679 226.40625,16.4150943 C226.40625,19.4140208 225.656934,22.1893015 224.158278,24.7410196 C222.7385,27.2138186 220.792906,29.160461 218.321439,30.5810051 C215.771096,32.0804683 212.997311,32.8301887 210,32.8301887 C207.002689,32.8301887 204.228904,32.0804683 201.678561,30.5810051 C199.207094,29.1341546 197.2615,27.1743592 195.841722,24.7015602 C194.343066,22.1498421 193.59375,19.3877144 193.59375,16.4150943 C193.59375,13.4424743 194.343066,10.6803466 195.841722,8.12862845 C197.287793,5.65582944 199.246532,3.69603408 201.717999,2.2491836 C204.268342,0.749720369 207.028982,-9.09494702e-13 210,-9.09494702e-13 Z" id="check_circle---material" fill="#FF6E6D"></path>
                <path d="M61.491887,113.30361 L76.2811749,98.5063498 L73.9543269,96.0993287 L61.491887,108.607946 L55.6550481,102.728501 L53.3282001,105.056604 L61.491887,113.30361 Z M64.8046875,88.6415094 C67.8019982,88.6415094 70.5757835,89.3912298 73.1261268,90.890693 C75.5975935,92.3112371 77.543187,94.2578795 78.9629657,96.7306785 C80.4616211,99.2823966 81.2109375,102.057677 81.2109375,105.056604 C81.2109375,108.05553 80.4616211,110.830811 78.9629657,113.382529 C77.543187,115.855328 75.5975935,117.80197 73.1261268,119.222515 C70.5757835,120.721978 67.8019982,121.471698 64.8046875,121.471698 C61.8073768,121.471698 59.0335915,120.721978 56.4832482,119.222515 C54.0117815,117.775664 52.066188,115.815869 50.6464093,113.34307 C49.1477539,110.791352 48.3984375,108.029224 48.3984375,105.056604 C48.3984375,102.083984 49.1477539,99.321856 50.6464093,96.7701379 C52.0924802,94.2973389 54.0512196,92.3375435 56.5226863,90.890693 C59.0730296,89.3912298 61.833669,88.6415094 64.8046875,88.6415094 Z" id="check_circle---material-copy" fill="#FF6E6D"></path>
                <path d="M351.882512,113.30361 L366.6718,98.5063498 L364.344952,96.0993287 L351.882512,108.607946 L346.045673,102.728501 L343.718825,105.056604 L351.882512,113.30361 Z M355.195312,88.6415094 C358.192623,88.6415094 360.966409,89.3912298 363.516752,90.890693 C365.988218,92.3112371 367.933812,94.2578795 369.353591,96.7306785 C370.852246,99.2823966 371.601562,102.057677 371.601562,105.056604 C371.601562,108.05553 370.852246,110.830811 369.353591,113.382529 C367.933812,115.855328 365.988218,117.80197 363.516752,119.222515 C360.966409,120.721978 358.192623,121.471698 355.195312,121.471698 C352.198002,121.471698 349.424216,120.721978 346.873873,119.222515 C344.402407,117.775664 342.456813,115.815869 341.037034,113.34307 C339.538379,110.791352 338.789062,108.029224 338.789062,105.056604 C338.789062,102.083984 339.538379,99.321856 341.037034,96.7701379 C342.483105,94.2973389 344.441845,92.3375435 346.913311,90.890693 C349.463655,89.3912298 352.224294,88.6415094 355.195312,88.6415094 Z" id="check_circle---material-copy-2" fill="#FF6E6D"></path>
            </g>
        </g>
    </g>
</svg>
